<?xml version="1.0" encoding="utf-8" ?>	<!-- Generator: Assembly 2.4 - http://assemblyapp.co -->	<svg version="1.1" xmlns="http://www.w3.org/2000/svg" xmlns:xlink="http://www.w3.org/1999/xlink" width="8000.00" height="3500.00" viewBox="0 0 8000.0 3500.0">		<g id="document" transform="scale(1.956612723214286 1.956612723214286) translate(2048.0 894.4028520499112)">			<g>				<defs>					<filter id="uh3Rr0EB" x="0.00%" y="0.00%" width="113.52%" height="113.11%" filterUnits="objectBoundingBox">						<feOffset dx="91.23" dy="86.27" in="SourceAlpha" result="shadowOffsetOuter1" />						<feGaussianBlur stdDeviation="35.64" in="shadowOffsetOuter1" result="shadowBlurOuter1" />						<feFlood flood-color="#000000" flood-opacity="0.27" />						<feComposite in2="shadowBlurOuter1" operator="in" />						<feMerge>							<feMergeNode />							<feMergeNode in="SourceGraphic" />						</feMerge>					</filter>				</defs>				<path d="M-1067.02,583.743 L-1659.59,583.743 L-1659.59,-8.82613 C-1659.59,-331.288 -1399,-591.876 -1076.54,-591.876 L-483.967,-591.876 L-483.967,0.69308 C-483.967,323.155 -744.555,583.743 -1067.02,583.743 Z " fill="none" stroke-width="26.04" stroke="#e60000" stroke-linecap="square" stroke-linejoin="miter" filter="url(#uh3Rr0EB)" />				<path d="M-569.818,62.102 L-569.818,-500.298 L-971.793,-500.298 L-971.793,-56.4432 L-1172.78,-56.4432 L-1172.78,-500.298 L-1574.76,-500.298 L-1574.76,62.102 C-1574.76,62.1143 -1574.76,62.1253 -1574.76,62.1376 C-1574.76,62.1498 -1574.76,62.1609 -1574.76,62.1731 L-1574.76,504.641 L-1172.78,504.641 L-1172.78,180.718 L-971.793,180.718 L-971.793,504.641 L-569.818,504.641 L-569.818,62.1731 C-569.818,62.1609 -569.818,62.1498 -569.818,62.1376 C-569.818,62.1253 -569.818,62.1143 -569.818,62.102 L-569.818,62.102 Z " fill="#ffffff" fill-opacity="1.00" stroke-width="26.04" stroke="#bebebe" stroke-linecap="square" stroke-linejoin="miter" />				<g>					<defs>						<filter id="be5c5eA5" x="-33.74%" y="-0.71%" width="169.22%" height="124.08%" filterUnits="objectBoundingBox">							<feOffset dx="-12.90" dy="13.44" in="SourceAlpha" result="shadowOffsetOuter1" />							<feGaussianBlur stdDeviation="7.15" in="shadowOffsetOuter1" result="shadowBlurOuter1" />							<feFlood flood-color="#bebebe" flood-opacity="0.43" />							<feComposite in2="shadowBlurOuter1" operator="in" />							<feMerge>								<feMergeNode />								<feMergeNode in="SourceGraphic" />							</feMerge>						</filter>					</defs>					<path d="M-1604.28,-439.929 L-1604.28,-430.419 C-1604.28,-417.037 -1615.08,-406.234 -1628.47,-406.234 L-1668.77,-406.234 L-1668.77,-390.111 L-1628.47,-390.111 C-1606.22,-390.111 -1588.16,-408.169 -1588.16,-430.419 L-1588.16,-472.17 C-1588.16,-472.171 -1588.16,-472.171 -1588.16,-472.171 L-1588.16,-512.478 L-1604.28,-512.478 L-1604.28,-472.171 C-1604.28,-458.789 -1615.08,-447.986 -1628.47,-447.986 C-1641.85,-447.986 -1652.65,-458.789 -1652.65,-472.171 L-1652.65,-512.478 L-1668.77,-512.478 L-1668.77,-472.171 C-1668.77,-449.921 -1650.72,-431.863 -1628.47,-431.863 C-1619.39,-431.863 -1611.02,-434.865 -1604.28,-439.929 L-1604.28,-439.929 Z " fill="#000000" fill-opacity="1.00" filter="url(#be5c5eA5)" />					<defs>						<filter id="FeVaAsZm" x="-33.74%" y="-0.51%" width="169.22%" height="117.50%" filterUnits="objectBoundingBox">							<feOffset dx="-12.90" dy="13.44" in="SourceAlpha" result="shadowOffsetOuter1" />							<feGaussianBlur stdDeviation="7.15" in="shadowOffsetOuter1" result="shadowBlurOuter1" />							<feFlood flood-color="#bebebe" flood-opacity="0.43" />							<feComposite in2="shadowBlurOuter1" operator="in" />							<feMerge>								<feMergeNode />								<feMergeNode in="SourceGraphic" />							</feMerge>						</filter>					</defs>					<path d="M-1755.63,-470.727 C-1754.87,-449.145 -1737.12,-431.863 -1715.35,-431.863 C-1693.1,-431.863 -1675.04,-449.921 -1675.04,-472.171 C-1675.04,-494.42 -1693.1,-512.478 -1715.35,-512.478 C-1724.43,-512.478 -1732.8,-509.475 -1739.54,-504.41 L-1739.54,-600.203 L-1755.66,-600.203 L-1755.66,-472.171 C-1755.66,-472.171 -1755.66,-472.171 -1755.66,-472.171 C-1755.66,-472.171 -1755.66,-472.17 -1755.66,-472.17 L-1755.66,-470.727 L-1755.63,-470.727 L-1755.63,-470.727 Z M-1715.35,-496.355 C-1701.97,-496.355 -1691.17,-485.553 -1691.17,-472.171 C-1691.17,-458.789 -1701.97,-447.986 -1715.35,-447.986 C-1728.73,-447.986 -1739.54,-458.789 -1739.54,-472.171 C-1739.54,-485.553 -1728.73,-496.355 -1715.35,-496.355 Z " fill="#000000" fill-opacity="1.00" filter="url(#FeVaAsZm)" />				</g>				<g>					<defs>						<filter id="1Un8ifkz" x="-11.40%" y="-6.99%" width="148.92%" height="140.40%" filterUnits="objectBoundingBox">							<feOffset dx="43.86" dy="65.04" in="SourceAlpha" result="shadowOffsetOuter1" />							<feGaussianBlur stdDeviation="55.95" in="shadowOffsetOuter1" result="shadowBlurOuter1" />							<feFlood flood-color="#000000" flood-opacity="0.22" />							<feComposite in2="shadowBlurOuter1" operator="in" />							<feMerge>								<feMergeNode />								<feMergeNode in="SourceGraphic" />							</feMerge>						</filter>					</defs>					<path d="M-77.0757,349.817 L-77.0757,368.51 C-77.0757,443.835 -137.881,504.64 -213.206,504.64 L-569.818,504.64 L-569.818,598.313 L-213.206,595.394 C-87.9662,595.394 13.6777,493.75 13.6777,368.51 L13.6777,168.333 C13.6777,168.333 13.6777,168.333 13.6777,168.333 L13.6777,-58.5501 L-31.699,-58.5501 L-77.0757,-58.5501 L-77.0757,168.333 C-77.0757,243.658 -137.881,304.463 -213.206,304.463 C-288.531,304.463 -349.336,243.658 -349.336,168.333 L-349.336,-58.5501 L-440.089,-58.5501 L-440.089,168.333 C-440.089,293.573 -338.445,395.217 -213.206,395.217 C-162.143,395.217 -115.003,378.32 -77.0757,349.817 L-77.0757,349.817 Z " fill="#000000" fill-opacity="1.00" stroke-width="13.05" stroke="#bebebe" stroke-linecap="square" stroke-linejoin="miter" filter="url(#1Un8ifkz)" />					<defs>						<filter id="tDZgUmOD" x="-14.57%" y="-10.04%" width="162.51%" height="157.98%" filterUnits="objectBoundingBox">							<feOffset dx="43.86" dy="65.04" in="SourceAlpha" result="shadowOffsetOuter1" />							<feGaussianBlur stdDeviation="55.95" in="shadowOffsetOuter1" result="shadowBlurOuter1" />							<feFlood flood-color="#000000" flood-opacity="0.22" />							<feComposite in2="shadowBlurOuter1" operator="in" />							<feMerge>								<feMergeNode />								<feMergeNode in="SourceGraphic" />							</feMerge>						</filter>					</defs>					<path d="M509.208,168.333 C509.208,293.573 407.564,395.217 282.325,395.217 C157.085,395.217 55.4416,293.573 55.4416,168.333 C55.4416,43.0937 157.085,-58.5501 282.325,-58.5501 C407.564,-58.5501 509.208,43.0937 509.208,168.333 Z M282.325,32.2032 C207,32.2032 146.195,93.0081 146.195,168.333 C146.195,243.658 207,304.463 282.325,304.463 C357.65,304.463 418.455,243.658 418.455,168.333 C418.455,93.0081 357.65,32.2032 282.325,32.2032 Z " fill="#000000" fill-opacity="1.00" stroke-width="13.05" stroke="#bebebe" stroke-linecap="square" stroke-linejoin="miter" filter="url(#tDZgUmOD)" />					<defs>						<filter id="iRwElESc" x="-14.57%" y="-10.04%" width="162.51%" height="157.98%" filterUnits="objectBoundingBox">							<feOffset dx="43.86" dy="65.04" in="SourceAlpha" result="shadowOffsetOuter1" />							<feGaussianBlur stdDeviation="55.95" in="shadowOffsetOuter1" result="shadowBlurOuter1" />							<feFlood flood-color="#000000" flood-opacity="0.22" />							<feComposite in2="shadowBlurOuter1" operator="in" />							<feMerge>								<feMergeNode />								<feMergeNode in="SourceGraphic" />							</feMerge>						</filter>					</defs>					<path d="M643.841,-11.0436 L643.841,-56.4436 L553.087,-56.4436 L553.087,170.439 C553.087,170.44 553.087,170.44 553.087,170.44 L553.087,397.323 L598.464,397.323 L643.841,397.323 L643.841,170.44 C643.841,95.1147 704.645,34.3098 779.971,34.3098 C855.296,34.3098 916.101,95.1147 916.101,170.44 L916.101,397.323 L1006.85,397.323 L1006.85,170.44 C1006.85,45.2003 905.21,-56.4436 779.971,-56.4436 C728.908,-56.4436 681.768,-39.547 643.841,-11.0436 L643.841,-11.0436 Z " fill="#000000" fill-opacity="1.00" stroke-width="13.05" stroke="#bebebe" stroke-linecap="square" stroke-linejoin="miter" filter="url(#iRwElESc)" />					<defs>						<filter id="N4d1zruz" x="-5.83%" y="-4.21%" width="153.77%" height="152.15%" filterUnits="objectBoundingBox">							<feOffset dx="84.70" dy="92.27" in="SourceAlpha" result="shadowOffsetOuter1" />							<feGaussianBlur stdDeviation="55.95" in="shadowOffsetOuter1" result="shadowBlurOuter1" />							<feFlood flood-color="#000000" flood-opacity="0.22" />							<feComposite in2="shadowBlurOuter1" operator="in" />							<feMerge>								<feMergeNode />								<feMergeNode in="SourceGraphic" />							</feMerge>						</filter>					</defs>					<path d="M1504.45,34.3098 L1186.82,34.3098 C1161.86,34.3098 1141.44,54.7293 1141.44,79.6865 C1141.44,104.644 1161.86,125.063 1186.82,125.063 L1368.32,125.063 C1443.65,125.063 1504.45,185.868 1504.45,261.193 C1504.45,336.518 1443.65,397.323 1368.32,397.323 L1050.69,397.323 L1050.69,306.57 L1368.32,306.57 C1393.28,306.57 1413.7,286.15 1413.7,261.193 C1413.7,236.236 1393.28,215.817 1368.32,215.817 L1186.82,215.817 C1111.49,215.817 1050.69,155.012 1050.69,79.6865 C1050.69,4.36129 1111.49,-56.4436 1186.82,-56.4436 L1504.45,-56.4436 L1504.45,34.3098 Z " fill="#000000" fill-opacity="1.00" stroke-width="13.05" stroke="#bebebe" stroke-linecap="square" stroke-linejoin="miter" filter="url(#N4d1zruz)" />				</g>				<defs>					<filter id="f92NfG0X" x="-6.56%" y="-3.82%" width="161.01%" height="161.08%" filterUnits="objectBoundingBox">						<feOffset dx="52.24" dy="59.64" in="SourceAlpha" result="shadowOffsetOuter1" />						<feGaussianBlur stdDeviation="34.41" in="shadowOffsetOuter1" result="shadowBlurOuter1" />						<feFlood flood-color="#000000" flood-opacity="0.20" />						<feComposite in2="shadowBlurOuter1" operator="in" />						<feMerge>							<feMergeNode />							<feMergeNode in="SourceGraphic" />						</feMerge>					</filter>				</defs>				<path d="M1629.24,-194.293 L1552.06,-140.769 L1579.27,-230.37 L1504.45,-287.147 L1598.49,-289.217 L1629.24,-377.931 L1660,-289.217 L1754.03,-287.147 L1679.22,-230.37 L1706.42,-140.769 L1629.24,-194.293 Z " fill="#bebebe" fill-opacity="1.00" stroke-width="3.25" stroke="#000000" stroke-linecap="round" stroke-linejoin="round" filter="url(#f92NfG0X)" />			</g>		</g>	</svg>